<svg width="32" height="32" viewBox="0 0 32 32" fill="none" xmlns="http://www.w3.org/2000/svg">
<mask id="mask0_436904_6091" style="mask-type:alpha" maskUnits="userSpaceOnUse" x="0" y="0" width="32" height="32">
<rect width="32" height="32" fill="#D9D9D9"/>
</mask>
<g mask="url(#mask0_436904_6091)">
<path d="M6.66667 25.3332H8.53333L20.0333 13.8332L18.1667 11.9665L6.66667 23.4665V25.3332ZM25.7333 11.8998L20.0667 6.29984L21.9333 4.43317C22.4444 3.92206 23.0722 3.6665 23.8167 3.6665C24.5611 3.6665 25.1889 3.92206 25.7 4.43317L27.5667 6.29984C28.0778 6.81095 28.3444 7.42761 28.3667 8.14984C28.3889 8.87206 28.1444 9.48873 27.6333 9.99984L25.7333 11.8998ZM23.8 13.8665L9.66667 27.9998H4V22.3332L18.1333 8.19984L23.8 13.8665Z" fill="white"/>
</g>
</svg>
